<?xml version="1.0" encoding="UTF-8"?>
<svg width="48px" height="48px" viewBox="0 0 48 48" version="1.1" xmlns="http://www.w3.org/2000/svg" xmlns:xlink="http://www.w3.org/1999/xlink">
    <!-- Generator: Sketch 43.1 (39012) - http://www.bohemiancoding.com/sketch -->
    <title>avatar</title>
    <desc>Created with Sketch.</desc>
    <defs></defs>
    <g id="Assets" stroke="none" stroke-width="1" fill="none" fill-rule="evenodd">
        <g id="avatar">
            <circle id="Oval" fill="#DADADA" cx="24" cy="24" r="24"></circle>
            <path d="M33.0241928,14.9792615 C33.0646312,13.9995949 32.7120161,13.0083689 31.96337,12.2598921 C30.5441221,10.8409361 28.2519356,10.8496057 26.8326877,12.2685617 C25.7111639,13.389832 25.4596882,15.0428387 26.1331806,16.4184177 L16.4181251,26.1341667 C15.0422351,25.4608266 13.3888547,25.7122454 12.2673309,26.8335157 C10.848083,28.2495529 10.8423019,30.547001 12.2615498,31.9659281 C13.0101959,32.7144049 13.9987555,33.0640794 14.9786436,33.0236501 C14.9381762,34.0032877 15.2908203,34.9945426 16.0394663,35.7401296 C17.4587142,37.1590566 19.7509008,37.150387 21.1701487,35.73146 C22.2917014,34.6101608 22.5402577,32.957183 21.8667942,31.5815751 L31.5818496,21.8687159 C32.9577685,22.5420561 34.6111201,22.2906372 35.7326728,21.1693669 C37.1519207,19.750411 37.1577017,17.4529629 35.7384249,16.0340647 C34.98975,15.2885067 34.0040808,14.9388033 33.0241928,14.9792615 Z" id="iconbone" fill="#FFFFFF" fill-rule="nonzero"></path>
        </g>
    </g>
</svg>