<?xml version="1.0" encoding="UTF-8"?>
<svg width="20px" height="20px" viewBox="0 0 20 20" version="1.1" xmlns="http://www.w3.org/2000/svg" xmlns:xlink="http://www.w3.org/1999/xlink">
    <!-- Generator: Sketch 43.1 (39012) - http://www.bohemiancoding.com/sketch -->
    <title>iconAdd</title>
    <desc>Created with Sketch.</desc>
    <defs></defs>
    <g id="Assets" stroke="none" stroke-width="1" fill="none" fill-rule="evenodd">
        <g id="iconAdd">
            <polygon id="Fill-1" points="0 20 20 20 20 0 0 0"></polygon>
            <path d="M11.00025,10.9999583 L15.7767917,10.9999583 C16.0380417,10.9999583 16.250125,10.7882917 16.250125,10.5270417 L16.250125,9.472875 C16.250125,9.211625 16.0380417,8.99995833 15.7767917,8.99995833 L11.00025,8.99995833 L11.00025,4.22304167 C11.00025,3.96179167 10.7881667,3.750125 10.5269167,3.750125 L9.47316667,3.750125 C9.21191667,3.750125 8.99983333,3.96179167 8.99983333,4.22304167 L8.99983333,8.99995833 L4.22304167,8.99995833 C3.96220833,8.99995833 3.750125,9.211625 3.750125,9.472875 L3.750125,10.5270417 C3.750125,10.7882917 3.96220833,10.9999583 4.22304167,10.9999583 L8.99983333,10.9999583 L8.99983333,15.7767917 C8.99983333,16.0380417 9.21191667,16.250125 9.47316667,16.250125 L10.5269167,16.250125 C10.7881667,16.250125 11.00025,16.0380417 11.00025,15.7767917 L11.00025,10.9999583 Z" id="Combined-Shape" fill="#FFFFFF"></path>
        </g>
    </g>
</svg>