<?xml version="1.0" encoding="UTF-8"?>
<svg width="20px" height="20px" viewBox="0 0 20 20" version="1.1" xmlns="http://www.w3.org/2000/svg" xmlns:xlink="http://www.w3.org/1999/xlink">
    <!-- Generator: Sketch 43.1 (39012) - http://www.bohemiancoding.com/sketch -->
    <title>iconUser</title>
    <desc>Created with Sketch.</desc>
    <defs></defs>
    <g id="Assets" stroke="none" stroke-width="1" fill="none" fill-rule="evenodd">
        <g id="iconUser">
            <polygon id="Fill-1" points="0 20 20 20 20 0 0 0"></polygon>
            <g id="Group-8" transform="translate(3.750000, 2.916667)" fill="#BEBEBE">
                <path d="M6.25,7.96875 C3.05875,7.96875 0.0520833333,10.0408333 0.0520833333,12.3958333 L0.0520833333,13.28125 C0.0520833333,13.7704167 0.448333333,14.1666667 0.9375,14.1666667 L11.5625,14.1666667 C12.0516667,14.1666667 12.4479167,13.7704167 12.4479167,13.28125 L12.4479167,12.3958333 C12.4479167,10.0408333 9.44125,7.96875 6.25,7.96875 M5.47041667,7.895 C8.27833333,8.42625 10.6916667,6.01291667 10.1604167,3.20458333 C9.86375,1.63583333 8.59875,0.370833333 7.02958333,0.07375 C4.22166667,-0.4575 1.80833333,1.95583333 2.33958333,4.76416667 C2.63625,6.33291667 3.90125,7.59791667 5.47041667,7.895" id="Fill-2"></path>
                <path d="M3.98070833,6.82516667 C4.562375,7.26308333 4.44445833,8.18308333 3.59029167,8.46308333 C2.71279167,8.751 5.16154167,8.85433333 5.16154167,8.85433333 L6.249875,7.96891667 L6.249875,6.60391667 L3.98070833,6.82516667 Z" id="Fill-4"></path>
                <path d="M8.51929167,6.82516667 C7.937625,7.26308333 8.05554167,8.18308333 8.90970833,8.46308333 C9.78720833,8.751 7.33845833,8.85433333 7.33845833,8.85433333 L6.250125,7.96891667 L6.250125,6.60391667 L8.51929167,6.82516667 Z" id="Fill-6"></path>
            </g>
        </g>
    </g>
</svg>