<?xml version="1.0" encoding="UTF-8"?>
<svg width="20px" height="20px" viewBox="0 0 20 20" version="1.1" xmlns="http://www.w3.org/2000/svg" xmlns:xlink="http://www.w3.org/1999/xlink">
    <!-- Generator: Sketch 43.1 (39012) - http://www.bohemiancoding.com/sketch -->
    <title>iconComputer</title>
    <desc>Created with Sketch.</desc>
    <defs></defs>
    <g id="Assets" stroke="none" stroke-width="1" fill="none" fill-rule="evenodd">
        <g id="iconComputer">
            <polygon id="Fill-1" points="0 20 20 20 20 0 0 0"></polygon>
            <g id="Group-8" transform="translate(2.916667, 3.333333)" fill="#A2A2A2">
                <path d="M13.6665833,0 L0.499916667,0 C0.223666667,0 -8.33333334e-05,0.22375 -8.33333334e-05,0.5 L-8.33333334e-05,9.5 C-8.33333334e-05,9.77625 0.223666667,10 0.499916667,10 L13.6665833,10 C13.9428333,10 14.1665833,9.77625 14.1665833,9.5 L14.1665833,0.5 C14.1665833,0.22375 13.9428333,0 13.6665833,0 L13.6665833,0 Z M2.08325,7.91666667 L12.08325,7.91666667 L12.08325,2.08333333 L2.08325,2.08333333 L2.08325,7.91666667 Z" id="Fill-2"></path>
                <polygon id="Fill-4" points="9.58333333 11.25 4.58333333 11.25 5 10 9.16666667 10"></polygon>
                <path d="M11.3447917,13.3333333 L2.821875,13.3333333 C2.468125,13.3333333 2.22604167,12.97625 2.35770833,12.6475 L2.79104167,11.5641667 C2.866875,11.3745833 3.050625,11.25 3.25520833,11.25 L10.9114583,11.25 C11.1160417,11.25 11.2997917,11.3745833 11.375625,11.5641667 L11.8089583,12.6475 C11.940625,12.97625 11.6985417,13.3333333 11.3447917,13.3333333" id="Fill-6"></path>
            </g>
        </g>
    </g>
</svg>