<?xml version="1.0" encoding="UTF-8"?>
<svg width="20px" height="20px" viewBox="0 0 20 20" version="1.1" xmlns="http://www.w3.org/2000/svg" xmlns:xlink="http://www.w3.org/1999/xlink">
    <!-- Generator: Sketch 43.1 (39012) - http://www.bohemiancoding.com/sketch -->
    <title>iconCheck</title>
    <desc>Created with Sketch.</desc>
    <defs></defs>
    <g id="Assets" stroke="none" stroke-width="1" fill="none" fill-rule="evenodd">
        <g id="iconCheck">
            <polygon id="Fill-1" points="0 20 20 20 20 0 0 0"></polygon>
            <g id="Group-8" transform="translate(2.000000, 2.000000)" fill="#A2A2A2">
                <path d="M0,7.91666667 C0,3.54458333 3.54458333,0 7.91666667,0 C12.28875,0 15.8333333,3.54458333 15.8333333,7.91666667 C15.8333333,12.28875 12.28875,15.8333333 7.91666667,15.8333333 C3.54458333,15.8333333 0,12.28875 0,7.91666667 Z M5.90312495,10.5874514 L5.90312495,10.5874514 C5.90637387,10.5909265 5.90969333,10.59436 5.91308333,10.59775 L6.4435,11.12775 C6.60641667,11.2906667 6.87016667,11.2906667 7.03308333,11.12775 L12.336,5.82483333 C12.4989167,5.66191667 12.4989167,5.39816667 12.336,5.23566667 L11.806,4.70525 C11.6430833,4.54275 11.3793333,4.54275 11.2168333,4.70525 L6.73811574,9.18361574 L4.61683333,7.06233333 C4.45391667,6.89941667 4.19016667,6.89941667 4.02766667,7.06233333 L3.49725,7.59275 C3.33475,7.75525 3.33475,8.01941667 3.49725,8.18191667 L5.90312495,10.5874514 Z" id="Combined-Shape"></path>
            </g>
        </g>
    </g>
</svg>