<?xml version="1.0" encoding="UTF-8"?>
<svg width="20px" height="20px" viewBox="0 0 20 20" version="1.1" xmlns="http://www.w3.org/2000/svg" xmlns:xlink="http://www.w3.org/1999/xlink">
    <!-- Generator: Sketch 43.1 (39012) - http://www.bohemiancoding.com/sketch -->
    <title>iconEnvelope</title>
    <desc>Created with Sketch.</desc>
    <defs></defs>
    <g id="Assets" stroke="none" stroke-width="1" fill="none" fill-rule="evenodd">
        <g id="iconEnvelope">
            <polygon id="Fill-1" points="0 20 20 20 20 0 0 0"></polygon>
            <path d="M4.1013214,7.69887733 C3.76462024,7.46027379 3.44678165,7.13211556 3.14811953,6.71449219 C2.84942888,6.29689867 2.70001221,5.90900746 2.70001221,5.55105737 C2.70001221,5.10791091 2.81270251,4.73858737 3.03808312,4.4431166 C3.26349226,4.14770553 3.58532595,4 4.00352711,4 L15.9963835,4 C16.3493219,4 16.6548899,4.13346634 16.9128876,4.40054827 C17.1709138,4.66757051 17.2999841,4.98862407 17.2999841,5.36367911 C17.2999841,5.81249736 17.1669758,6.24149417 16.900674,6.65043073 C16.6345719,7.05954641 16.3033212,7.40904851 15.9068363,7.69869822 C13.8646563,9.18172388 12.5935587,10.1050626 12.0939432,10.4686248 C12.0396384,10.5084766 11.924123,10.5949864 11.7476538,10.7286319 C11.5710705,10.8622475 11.4245074,10.9702206 11.3077079,11.052581 C11.1909083,11.1348818 11.0497102,11.227153 10.8840848,11.329514 C10.7185451,11.4315765 10.5622226,11.508504 10.415631,11.559371 C10.2689538,11.6106262 10.1331205,11.6360597 9.99180818,11.6360597 C9.86690429,11.6360597 9.73112803,11.610656 9.58445085,11.559371 C9.43780222,11.508504 9.28162242,11.431666 9.11593999,11.329514 C8.9502005,11.2272724 8.80900231,11.1349117 8.69220277,11.052581 C8.57548883,10.9702206 8.42881166,10.8622475 8.25228539,10.7286319 C8.07578767,10.5951058 7.96041494,10.5084766 7.90611014,10.4686248 C7.4118309,10.1050626 6.70030393,9.58666033 5.7715007,8.91338818 C4.842726,8.24011602 4.28600908,7.83520942 4.1013214,7.69887733 Z M16.4851553,9.21142383 C16.794918,8.98989538 17.0664135,8.74257518 17.3000126,8.4699707 L17.3000126,14.2368723 C17.3000126,14.6121363 17.1724834,14.9328913 16.917111,15.200033 C16.6618242,15.4671746 16.3549151,15.6007006 15.9964977,15.6007006 L4.00361272,15.6007006 C3.64510973,15.6007006 3.33817205,15.4671746 3.08291382,15.200033 C2.82759852,14.9329809 2.70001221,14.6121064 2.70001221,14.2368723 L2.70001221,8.4699707 C2.93900468,8.74833653 3.2132967,8.99565673 3.52297388,9.21142383 C5.48916141,10.6091039 6.83887676,11.5893695 7.57217702,12.1518326 C7.88174005,12.3903765 8.13297464,12.5765905 8.32573813,12.710027 C8.51855868,12.8435531 8.77524374,12.979915 9.0956506,13.1190531 C9.41605747,13.2584002 9.71483373,13.3278648 10.0083308,13.3278648 C10.2853908,13.3278648 10.5839959,13.2584002 10.9044027,13.1190531 C11.2249237,12.979915 11.4814376,12.8435531 11.6743152,12.710027 C11.8671928,12.5765905 12.1183418,12.3903765 12.4279334,12.1518326 C13.351172,11.4528881 14.7037981,10.4726822 16.4851553,9.21142383 Z" id="Combined-Shape" fill="#BEBEBE" fill-rule="nonzero"></path>
        </g>
    </g>
</svg>