<?xml version="1.0" encoding="UTF-8"?>
<svg width="16px" height="16px" viewBox="0 0 16 16" version="1.1" xmlns="http://www.w3.org/2000/svg" xmlns:xlink="http://www.w3.org/1999/xlink">
    <!-- Generator: Sketch 43.1 (39012) - http://www.bohemiancoding.com/sketch -->
    <title>iconAddGrey</title>
    <desc>Created with Sketch.</desc>
    <defs></defs>
    <g id="Assets" stroke="none" stroke-width="1" fill="none" fill-rule="evenodd">
        <g id="iconAddGrey">
            <polygon id="Fill-1" points="0 16 16 16 16 0 0 0"></polygon>
            <path d="M8.8002,8.79996667 L12.6214333,8.79996667 C12.8304333,8.79996667 13.0001,8.63063333 13.0001,8.42163333 L13.0001,7.5783 C13.0001,7.3693 12.8304333,7.19996667 12.6214333,7.19996667 L8.8002,7.19996667 L8.8002,3.37843333 C8.8002,3.16943333 8.63053333,3.0001 8.42153333,3.0001 L7.57853333,3.0001 C7.36953333,3.0001 7.19986667,3.16943333 7.19986667,3.37843333 L7.19986667,7.19996667 L3.37843333,7.19996667 C3.16976667,7.19996667 3.0001,7.3693 3.0001,7.5783 L3.0001,8.42163333 C3.0001,8.63063333 3.16976667,8.79996667 3.37843333,8.79996667 L7.19986667,8.79996667 L7.19986667,12.6214333 C7.19986667,12.8304333 7.36953333,13.0001 7.57853333,13.0001 L8.42153333,13.0001 C8.63053333,13.0001 8.8002,12.8304333 8.8002,12.6214333 L8.8002,8.79996667 Z" id="Combined-Shape" fill="#A2A2A2"></path>
        </g>
    </g>
</svg>