<?xml version="1.0" encoding="UTF-8"?>
<svg width="149px" height="128px" viewBox="0 0 149 128" version="1.1" xmlns="http://www.w3.org/2000/svg" xmlns:xlink="http://www.w3.org/1999/xlink">
    <!-- Generator: Sketch 43.1 (39012) - http://www.bohemiancoding.com/sketch -->
    <title>logoMain</title>
    <desc>Created with Sketch.</desc>
    <defs></defs>
    <g id="Assets" stroke="none" stroke-width="1" fill="none" fill-rule="evenodd">
        <g id="logoMain" transform="translate(-1.000000, 0.000000)">
            <text id="WatchDog" font-family="MuseoSansRounded-700, Museo Sans Rounded" font-size="30.9410072" font-weight="500" line-spacing="33.5194245">
                <tspan x="0.552058111" y="123.383838" fill="#1696EA">Watch</tspan>
                <tspan x="91.2092092" y="123.383838" fill="#3B3B3B">Dog</tspan>
            </text>
            <g id="icon-dog" transform="translate(37.355932, 0.000000)" fill-rule="nonzero" fill="#1696EA">
                <path d="M74.0800742,17.4759278 C71.6204396,13.2798268 68.1649656,9.28838384 65.83183,7.19438672 C60.7386626,2.62200866 56.4900794,2.73336219 54.4103946,3.20692063 C53.5366764,3.40591919 52.7343591,3.73401443 52.0280482,4.17162771 C48.3992797,1.44300722 43.9847987,0.106305916 38.6440678,0.106305916 C33.3033369,0.106305916 28.888705,1.44300722 25.2600874,4.17178066 C24.5536255,3.73416739 23.7514592,3.40591919 22.877741,3.20707359 C20.79866,2.73366811 16.549473,2.62216162 11.4566075,7.19438672 C9.12332097,9.2885368 5.66799788,13.2799798 3.20806144,17.4760808 C-0.122272246,23.1570996 -0.864057203,27.7527273 1.00323623,31.1357027 C3.28323623,35.2660317 6.74157839,36.3229726 9.53346133,36.5836133 C8.84722722,39.2840895 8.42350106,42.1730101 8.42350106,45.7725743 C8.42350106,50.543798 9.49527013,54.648583 11.6093724,57.9729755 C13.4677595,60.8956999 16.1432574,63.2361126 19.561446,64.9292063 C25.8770339,68.0573535 33.4770842,68.4190996 38.6442187,68.4190996 C43.8113533,68.4190996 51.4115546,68.0573535 57.7269915,64.9292063 C61.1450291,63.2361126 63.820678,60.8956999 65.6790651,57.9729755 C67.7930164,54.64843 68.8649364,50.543645 68.8649364,45.7725743 C68.8649364,42.1731631 68.4412103,39.2842424 67.7549762,36.5836133 C70.5468591,36.3228196 74.0053522,35.2657258 76.2852013,31.1355498 C78.1521928,27.7528802 77.4102569,23.1570996 74.0800742,17.4759278 Z M11.0011811,31.862254 C8.53037606,31.796482 6.52118644,31.3117576 5.1322643,28.7957489 C4.19001324,27.088583 4.97119703,23.8550476 7.27580244,19.9238701 C9.4629661,16.1927619 12.6023437,12.5697951 14.5937209,10.7821732 C17.8823914,7.82946898 20.3477622,7.66687446 21.507688,7.8242684 C18.0558369,12.0881299 15.9400742,17.6294978 14.1707495,23.0171429 C13.4380217,25.2481905 12.7318618,27.1529784 12.0486467,28.9953593 C11.6833395,29.9810216 11.33192,30.9290563 11.0011811,31.862254 Z M35.5578257,47.5787042 C34.3340466,46.3392843 33.6935514,45.0382222 33.6935514,44.3936566 C33.6935514,43.818075 33.7909163,43.7767763 34.1527516,43.6224416 C35.1842161,43.1826869 37.2100106,43.1319048 38.6440678,43.1319048 C40.078125,43.1319048 42.1039195,43.1826869 43.135384,43.6224416 C43.4972193,43.7766234 43.5945842,43.818228 43.5945842,44.3936566 C43.5945842,45.0382222 42.9542399,46.3391313 41.7303099,47.5787042 C40.5267585,48.7974747 39.2419942,49.4550418 38.6439168,49.4550418 C38.0458395,49.4550418 36.7613771,48.7974747 35.5578257,47.5787042 Z M55.64942,60.6226696 C52.01884,62.4206926 47.212786,63.3959538 41.0095074,63.58914 L41.0095074,53.7701443 C42.8668379,53.043899 44.3793909,51.6733939 45.0746822,50.9693276 C46.0521054,49.9795354 48.3254635,47.3572208 48.3254635,44.3938095 C48.3254635,41.9695758 47.1338374,40.12643 44.9700715,39.2040924 C43.5278628,38.5892006 41.6949868,38.3383492 38.6442187,38.3383492 C35.5934507,38.3383492 33.7605747,38.5892006 32.318215,39.2040924 C30.1546001,40.12643 28.9628231,41.9694228 28.9628231,44.3938095 C28.9628231,47.3572208 31.2363321,49.9793824 32.2136043,50.9693276 C32.9088957,51.6735469 34.4215996,53.0440519 36.2787791,53.7701443 L36.2787791,63.58914 C30.0755005,63.3961068 25.2694465,62.4209986 21.6388665,60.6226696 C15.9295074,57.7947792 13.1540784,52.9372872 13.1540784,45.7725743 C13.1540784,39.6432352 14.547982,35.8839827 16.4770154,30.6811111 C17.1431727,28.8846176 17.8979396,26.8484387 18.6591976,24.5306638 C22.8406065,11.799039 27.2638427,4.89986147 38.6440678,4.89986147 C50.0242929,4.89986147 54.4475291,11.7991919 58.6287871,24.5306638 C59.3898941,26.8485916 60.1449629,28.8846176 60.8109693,30.6811111 C62.7400026,35.8839827 64.1339062,39.6430823 64.1339062,45.7725743 C64.1340572,52.9372872 61.3586282,57.7947792 55.64942,60.6226696 Z M72.1561732,28.7957489 C70.7671001,31.3120635 68.7579105,31.796329 66.2871054,31.862254 C65.9562156,30.9289033 65.605098,29.9810216 65.2397908,28.9953593 C64.5567267,27.1531313 63.8505667,25.2481905 63.117688,23.0171429 C61.3483633,17.6294978 59.2326006,12.0881299 55.7807495,7.8242684 C56.9406753,7.66718038 59.406197,7.82946898 62.6950185,10.7823261 C64.6863957,12.5696421 67.8256224,16.192456 70.012786,19.9235642 C72.3172405,23.8550476 73.0984243,27.0887359 72.1561732,28.7957489 Z" id="Shape"></path>
                <path d="M30.7719995,25.5831688 C29.0606409,25.5831688 27.667794,27.0088918 27.667794,28.7692872 C27.667794,30.5295296 29.0604899,31.9564762 30.7719995,31.9564762 C32.4856224,31.9564762 33.8781674,30.5293766 33.8781674,28.7692872 C33.8781674,27.0088918 32.4856224,25.5831688 30.7719995,25.5831688 Z" id="Shape"></path>
                <path d="M46.4928893,25.5582367 C44.7649258,25.5582367 43.3631727,26.9958903 43.3631727,28.7692872 C43.3631727,30.542684 44.7649258,31.9803377 46.4928893,31.9803377 C48.2188904,31.9803377 49.6204926,30.542684 49.6204926,28.7692872 C49.6206435,26.9958903 48.2188904,25.5582367 46.4928893,25.5582367 Z" id="Shape"></path>
            </g>
        </g>
    </g>
</svg>