<?xml version="1.0" encoding="UTF-8"?>
<svg width="163px" height="32px" viewBox="0 0 163 32" version="1.1" xmlns="http://www.w3.org/2000/svg" xmlns:xlink="http://www.w3.org/1999/xlink">
    <!-- Generator: Sketch 43.1 (39012) - http://www.bohemiancoding.com/sketch -->
    <title>logoSmall</title>
    <desc>Created with Sketch.</desc>
    <defs></defs>
    <g id="Assets" stroke="none" stroke-width="1" fill="none" fill-rule="evenodd">
        <g id="logoSmall">
            <g id="icon-dog" fill-rule="nonzero" fill="#1696EA">
                <path d="M35.4642109,8.16092857 C34.2867148,6.20142857 32.6324824,4.3375 31.5155449,3.35964286 C29.0773027,1.22442857 27.0433867,1.27642857 26.0477832,1.49757143 C25.6295098,1.5905 25.245418,1.74371429 24.9072871,1.94807143 C23.1700937,0.673857143 21.0567578,0.0496428571 18.5,0.0496428571 C15.9432422,0.0496428571 13.829834,0.673857143 12.0927129,1.94814286 C11.7545098,1.74378571 11.3704902,1.5905 10.9522168,1.49764286 C9.95690234,1.27657143 7.92269727,1.2245 5.48459961,3.35964286 C4.36758984,4.33757143 2.71342969,6.2015 1.53578906,8.161 C-0.0585351563,10.8139286 -0.413648438,12.96 0.480277344,14.5397857 C1.57177734,16.4685714 3.22738281,16.9621429 4.56393555,17.0838571 C4.23541602,18.3449286 4.03256641,19.694 4.03256641,21.3749286 C4.03256641,23.603 4.54565234,25.5198571 5.55773242,27.0722857 C6.44739453,28.4371429 7.72823047,29.5300714 9.36461328,30.3207143 C12.3880625,31.7815 16.0264199,31.9504286 18.5000723,31.9504286 C20.9737246,31.9504286 24.6121543,31.7815 27.6355312,30.3207143 C29.2718418,29.5300714 30.55275,28.4371429 31.4424121,27.0722857 C32.4544199,25.5197857 32.9675781,23.6029286 32.9675781,21.3749286 C32.9675781,19.6940714 32.7647285,18.345 32.436209,17.0838571 C33.7727617,16.9620714 35.4284395,16.4684286 36.5198672,14.5397143 C37.4136484,12.9600714 37.0584629,10.8139286 35.4642109,8.16092857 Z M5.26657422,14.8790714 C4.08373047,14.8483571 3.121875,14.622 2.45695898,13.4470714 C2.00587695,12.6498571 2.37985156,11.1398571 3.48313086,9.30407143 C4.5301875,7.56171429 6.0330957,5.86985714 6.98642383,5.03507143 C8.56080273,3.65621429 9.74104492,3.58028571 10.296334,3.65378571 C8.64383594,5.64492857 7.63096094,8.23264286 6.78393555,10.7485714 C6.4331582,11.7904286 6.09509961,12.6799286 5.76802539,13.5402857 C5.59314258,14.0005714 5.4249082,14.4432857 5.26657422,14.8790714 Z M17.0225293,22.2183571 C16.4366719,21.6395714 16.1300488,21.032 16.1300488,20.731 C16.1300488,20.4622143 16.1766602,20.4429286 16.3498809,20.3708571 C16.8436719,20.1655 17.8134766,20.1417857 18.5,20.1417857 C19.1865234,20.1417857 20.1563281,20.1655 20.6501191,20.3708571 C20.8233398,20.4428571 20.8699512,20.4622857 20.8699512,20.731 C20.8699512,21.032 20.5634004,21.6395 19.9774707,22.2183571 C19.4012969,22.7875 18.7862441,23.0945714 18.4999277,23.0945714 C18.2136113,23.0945714 17.5987031,22.7875 17.0225293,22.2183571 Z M26.6409395,28.3096429 C24.9028789,29.1492857 22.6020859,29.6047143 19.6324023,29.6949286 L19.6324023,25.1096429 C20.5215586,24.7705 21.2456602,24.1305 21.5785156,23.8017143 C22.0464355,23.3395 23.1347559,22.1149286 23.1347559,20.7310714 C23.1347559,19.599 22.564291,18.7382857 21.5284355,18.3075714 C20.8380098,18.0204286 19.9605605,17.9032857 18.5000723,17.9032857 C17.039584,17.9032857 16.1621348,18.0204286 15.4716367,18.3075714 C14.4358535,18.7382857 13.8653164,19.5989286 13.8653164,20.7310714 C13.8653164,22.1149286 14.953709,23.3394286 15.4215566,23.8017143 C15.7544121,24.1305714 16.4785859,24.7705714 17.3676699,25.1096429 L17.3676699,29.6949286 C14.3979863,29.6047857 12.0971934,29.1494286 10.3591328,28.3096429 C7.62590234,26.9890714 6.29722656,24.7207143 6.29722656,21.3749286 C6.29722656,18.5126429 6.96452734,16.7571429 7.88800977,14.3275 C8.20691797,13.4885714 8.56824609,12.5377143 8.93268164,11.4553571 C10.9344395,5.50992857 13.0519668,2.28814286 18.5,2.28814286 C23.9480332,2.28814286 26.0655605,5.51 28.0672461,11.4553571 C28.4316094,12.5377857 28.793082,13.4885714 29.111918,14.3275 C30.0354004,16.7571429 30.7027012,18.5125714 30.7027012,21.3749286 C30.7027734,24.7207143 29.3740977,26.9890714 26.6409395,28.3096429 Z M34.5431855,13.4470714 C33.8781973,14.6221429 32.9163418,14.8482857 31.733498,14.8790714 C31.5750918,14.4432143 31.407002,14.0005714 31.2321191,13.5402857 C30.9051172,12.68 30.5670586,11.7904286 30.216209,10.7485714 C29.3691836,8.23264286 28.3563086,5.64492857 26.7038105,3.65378571 C27.2590996,3.58042857 28.4394141,3.65621429 30.0138652,5.03514286 C30.9671934,5.86978571 32.4700293,7.56157143 33.5170859,9.30392857 C34.620293,11.1398571 34.9942676,12.6499286 34.5431855,13.4470714 Z" id="Shape"></path>
                <path d="M14.7314199,11.9468571 C13.9121445,11.9468571 13.2453496,12.6126429 13.2453496,13.4347143 C13.2453496,14.2567143 13.9120723,14.9230714 14.7314199,14.9230714 C15.5517793,14.9230714 16.2184297,14.2566429 16.2184297,13.4347143 C16.2184297,12.6126429 15.5517793,11.9468571 14.7314199,11.9468571 Z" id="Shape"></path>
                <path d="M22.2574512,11.9352143 C21.4302266,11.9352143 20.759168,12.6065714 20.759168,13.4347143 C20.759168,14.2628571 21.4302266,14.9342143 22.2574512,14.9342143 C23.0837363,14.9342143 23.7547227,14.2628571 23.7547227,13.4347143 C23.7547949,12.6065714 23.0837363,11.9352143 22.2574512,11.9352143 Z" id="Shape"></path>
            </g>
            <text id="WatchDog" font-family="MuseoSansRounded-700, Museo Sans Rounded" font-size="24" font-weight="500" line-spacing="26">
                <tspan x="47" y="26" fill="#1696EA">Watch</tspan>
                <tspan x="117.32" y="26" fill="#3B3B3B">Dog</tspan>
            </text>
        </g>
    </g>
</svg>